# xmcd
#
# Track frame offsets: 
#        150
#        17850
#        32602
#        58702
#        77461
#        97224
#        119312
#        138662
#        157637
#
# Disc length: 2357 seconds
#
# Revision: 0
# Processed by: cddbd v1.5.2PL0 Copyright (c) Steve Scherf et al.
# Submitted via: ExactAudioCopy v1.0b4
#
DISCID=6b093309
DTITLE=Jimmy Joe Band - Frame
DYEAR=2014
DGENRE=Blues
TTITLE0=Well, my baby
TTITLE1=Treat me so lowdown
TTITLE2=What's left of my pride
TTITLE3=Seems to turn blue
TTITLE4=You look so crazy
TTITLE5=Blue mood
TTITLE6=Highway 61
TTITLE7=Come when I call
TTITLE8=Frame
EXTD=
EXTT0=
EXTT1=
EXTT2=
EXTT3=
EXTT4=
EXTT5=
EXTT6=
EXTT7=
EXTT8=
PLAYORDER=
